<svg width="1583" height="511" viewBox="0 0 1583 511" fill="none" xmlns="http://www.w3.org/2000/svg">
<path d="M543.295 128.584L552.528 73.3636H842.656L833.423 128.584H721.03L669.893 437H604.553L655.689 128.584H543.295ZM835.376 437L880.831 164.273H945.107L899.652 437H835.376ZM922.379 125.21C912.081 125.21 903.558 121.777 896.811 114.912C890.064 108.046 887.105 99.8196 887.933 90.2315C888.762 80.6434 893.082 72.4166 900.895 65.5511C908.826 58.6856 917.881 55.2528 928.061 55.2528C938.359 55.2528 946.823 58.6856 953.452 65.5511C960.199 72.4166 963.158 80.6434 962.33 90.2315C961.619 99.8196 957.299 108.046 949.368 114.912C941.555 121.777 932.559 125.21 922.379 125.21ZM1066.6 441.794C1045.17 441.794 1026.89 436.29 1011.73 425.281C996.583 414.273 985.811 398.293 979.419 377.341C973.146 356.389 972.435 330.939 977.289 300.991C982.379 270.688 991.671 245.12 1005.17 224.287C1018.66 203.335 1034.76 187.533 1053.46 176.879C1072.28 166.107 1092.17 160.722 1113.12 160.722C1129.22 160.722 1141.94 163.444 1151.29 168.889C1160.76 174.216 1167.87 180.667 1172.6 188.243C1177.34 195.7 1180.83 202.743 1183.08 209.372H1185.74L1208.29 73.3636H1272.74L1212.37 437H1149.16L1156.44 394.031H1152.54C1148.04 400.66 1142.06 407.703 1134.6 415.161C1127.15 422.5 1117.85 428.773 1106.73 433.982C1095.6 439.19 1082.22 441.794 1066.6 441.794ZM1092.17 389.06C1105.9 389.06 1118.21 385.39 1129.1 378.051C1140.11 370.594 1149.28 360.236 1156.62 346.979C1163.96 333.721 1169.11 318.274 1172.07 300.636C1175.03 282.999 1175.03 267.67 1172.07 254.649C1169.11 241.628 1163.37 231.508 1154.85 224.287C1146.32 217.066 1135.14 213.456 1121.29 213.456C1107.08 213.456 1094.59 217.185 1083.82 224.642C1073.17 232.099 1064.41 242.398 1057.54 255.537C1050.68 268.676 1045.83 283.709 1042.98 300.636C1040.14 317.682 1039.97 332.893 1042.45 346.268C1045.06 359.526 1050.44 370.002 1058.61 377.696C1066.9 385.272 1078.08 389.06 1092.17 389.06ZM1401.21 442.327C1373.86 442.327 1351.25 436.645 1333.38 425.281C1315.5 413.799 1302.96 397.582 1295.74 376.631C1288.63 355.561 1287.45 330.762 1292.19 302.234C1296.8 274.18 1306.21 249.559 1320.42 228.371C1334.62 207.064 1352.38 190.492 1373.68 178.655C1395.11 166.699 1418.78 160.722 1444.71 160.722C1461.52 160.722 1476.96 163.444 1491.05 168.889C1505.14 174.216 1517.03 182.502 1526.74 193.747C1536.44 204.992 1543.13 219.315 1546.8 236.716C1550.47 253.998 1550.29 274.595 1546.27 298.506L1543.25 318.214H1319.53L1326.45 274.891H1488.39C1490.52 262.58 1489.81 251.631 1486.26 242.043C1482.7 232.336 1476.79 224.701 1468.5 219.138C1460.21 213.574 1449.86 210.793 1437.43 210.793C1424.76 210.793 1412.92 214.048 1401.92 220.558C1391.03 226.95 1381.85 235.236 1374.39 245.416C1366.94 255.596 1362.2 266.309 1360.19 277.554L1352.91 319.102C1350.31 336.148 1350.9 350.056 1354.69 360.828C1358.47 371.6 1365.1 379.531 1374.57 384.621C1384.04 389.711 1396 392.256 1410.44 392.256C1419.91 392.256 1428.67 390.954 1436.72 388.349C1444.77 385.745 1451.93 381.839 1458.2 376.631C1464.59 371.304 1469.92 364.794 1474.18 357.099L1532.95 363.847C1526.44 379.708 1516.91 393.558 1504.37 405.395C1491.82 417.114 1476.79 426.228 1459.27 432.739C1441.87 439.131 1422.51 442.327 1401.21 442.327Z" fill="white"/>
<path d="M264.475 377.292C228.598 363.966 191.696 361.916 157.869 371.142C134.293 377.292 111.741 389.592 91.2403 404.968L76.8892 417.269L72.7891 421.369L82.0145 429.57C83.0396 429.57 83.0397 430.595 84.0647 431.62C86.1149 433.67 88.1651 434.695 91.2403 436.745L97.3904 440.845L103.541 435.72C104.566 434.695 106.616 432.645 108.666 431.62C127.117 416.244 147.618 405.993 169.144 400.868C196.821 393.693 226.548 394.718 256.274 405.993C280.876 415.219 331.103 426.495 391.582 400.868L393.632 399.843L396.707 396.768C396.707 395.743 397.732 395.743 398.757 394.718C403.883 388.567 409.008 382.417 413.108 375.242L433.609 343.465L400.807 361.916C352.63 388.567 308.552 393.693 264.475 377.292Z" fill="white"/>
<path d="M124.024 266.589C151.7 259.413 181.427 260.438 211.154 271.714C243.955 284.015 328.01 301.441 422.315 216.361L437.691 200.985L438.716 199.96L442.817 195.86L440.766 190.734C439.741 186.634 437.691 181.509 435.641 176.384L430.516 162.033L420.265 172.283C419.24 174.333 417.19 175.358 415.14 177.409C370.037 223.536 300.334 270.689 220.379 241.987C184.502 228.662 147.6 226.611 113.773 235.837C80.9715 245.062 52.2698 262.488 25.6183 287.09V286.065L10.2425 302.466C10.2425 303.491 9.2176 303.491 8.19255 304.516L5.11719 307.591L6.14231 311.691C7.16736 316.816 9.21741 321.942 10.2425 327.067L16.3929 343.468L26.6434 330.142C27.6685 328.092 29.7186 327.067 30.7436 325.017C52.2698 305.541 81.9965 277.864 124.024 266.589Z" fill="white"/>
<path d="M24.6016 248.138C48.1779 223.536 74.8292 208.16 103.531 199.96C131.207 192.784 160.934 193.81 190.661 205.085C282.916 238.912 362.87 183.559 397.722 153.832L411.048 140.507L416.173 136.406L412.073 130.256C408.998 127.181 406.948 123.081 403.873 118.98L397.722 110.78L390.547 117.955C389.522 118.98 387.472 121.03 386.447 122.055C343.394 163.058 276.765 205.085 200.911 176.384C165.034 163.058 128.132 161.008 94.3054 170.233C72.7792 176.384 52.278 186.634 31.7768 199.96L10.2506 217.386C8.20045 219.436 7.1754 220.461 5.12528 222.511L3.07536 224.561V227.637C2.0503 234.812 2.05018 241.987 1.02512 248.138L0 273.764L17.4261 255.313C19.4762 253.263 21.5264 250.188 24.6016 248.138Z" fill="white"/>
<path d="M294.17 446.998L292.12 453.148L294.17 446.998C291.095 445.973 289.045 444.948 285.97 443.923C250.093 430.597 213.19 428.547 179.364 437.773C172.188 439.823 165.013 441.873 157.838 444.948L133.236 456.223L127.086 459.298L147.587 466.474C153.737 468.524 159.888 470.574 166.038 472.624L169.113 473.65L172.188 472.624C175.264 471.599 178.339 469.549 181.414 469.549C183.464 469.549 185.514 468.524 187.564 467.499C212.166 461.349 238.817 461.349 267.519 470.574C270.594 471.599 272.644 472.624 275.719 473.65L280.844 475.699L283.919 474.674C291.095 472.624 299.295 470.574 305.446 467.499L334.147 457.249L304.421 450.073C301.345 449.048 297.245 448.023 294.17 446.998Z" fill="white"/>
<path d="M451.003 234.812L435.627 250.188C433.577 252.238 431.527 254.289 429.477 256.339C387.449 296.316 319.796 339.368 243.941 310.667C208.064 297.341 171.162 295.291 137.335 304.517C105.559 313.742 76.8569 330.143 51.2305 354.744L37.9049 369.095L33.8047 374.22L37.9049 380.371C40.98 384.471 43.0303 387.546 45.0804 391.646L51.2305 400.872L58.406 391.646C59.431 390.621 61.4811 388.571 62.5062 387.546C87.1075 360.894 113.759 344.494 144.511 336.293C172.187 329.118 201.914 330.143 231.641 341.418C257.267 350.644 283.919 353.719 310.57 350.644C357.723 345.519 404.875 318.867 439.727 289.141C441.777 287.091 443.827 286.066 445.877 284.015L448.953 280.94V277.865C448.953 271.715 449.978 264.539 449.978 258.389L451.003 234.812Z" fill="white"/>
<path d="M61.5304 140.505L58.4554 134.354L61.5304 140.505C67.6808 137.43 74.8564 135.379 81.0068 133.329C108.683 126.154 138.41 127.179 168.137 138.454C187.613 145.63 207.089 148.705 228.615 148.705C271.667 148.705 314.72 133.329 354.697 103.603L370.073 91.3018L375.198 87.2016L365.972 80.0261C362.897 76.9509 358.797 73.8759 354.697 71.8258L348.546 67.7256L343.421 71.8258C341.371 72.8508 340.346 74.9009 338.296 75.9259C283.968 116.928 229.64 128.204 178.387 108.728C141.485 95.4021 104.583 92.3269 67.6808 103.603C64.6057 104.628 61.5305 105.653 57.4303 106.678L55.3803 107.703L52.305 110.778C52.305 111.803 51.2801 111.803 50.2551 112.828C46.1548 118.978 41.0294 124.104 36.9291 130.254L17.4531 159.981L49.2299 143.58C54.3552 143.58 58.4553 141.53 61.5304 140.505Z" fill="white"/>
<path d="M145.568 70.8016L148.643 71.8267C161.968 76.952 182.47 82.0773 208.096 82.0773C234.748 82.0773 260.374 75.9269 286 65.6763L317.777 50.3005L296.251 43.1253C290.101 41.0752 283.95 39.0251 276.775 38H273.7L270.625 39.0248C267.549 40.0499 264.474 42.1002 261.399 43.1253C230.647 54.4009 199.896 56.451 170.169 48.2506C167.094 47.2255 164.019 46.2003 160.943 45.1752L157.868 44.1501L154.793 45.1752C148.643 47.2253 142.492 49.2756 136.342 52.3507L112.766 62.6013L137.367 69.7765C139.417 68.7515 142.492 69.7766 145.568 70.8016Z" fill="white"/>
</svg>
