<svg width="90" height="27" viewBox="0 0 90 27" fill="none" xmlns="http://www.w3.org/2000/svg">
<path fill-rule="evenodd" clip-rule="evenodd" d="M12.8222 0.299081C12.2173 0.330597 11.3172 0.451885 10.7453 0.578889C10.2424 0.690587 9.52313 0.888371 9.48156 0.926385C9.46476 0.941753 11.2255 0.952685 13.5422 0.951561C16.3184 0.950218 17.6074 0.939473 17.5544 0.918139C17.4038 0.857542 16.8477 0.7048 16.4455 0.613529C15.2698 0.346809 14.0077 0.237266 12.8222 0.299081ZM7.01239 2.01045C6.55519 2.24952 6.19623 2.46436 5.63049 2.83756L5.24302 3.09317L9.36839 3.1011C11.6373 3.10544 15.3527 3.10544 17.6247 3.1011L21.7556 3.09317L21.5057 2.92071C21.0426 2.60111 20.5089 2.27679 20.0498 2.03612L19.5935 1.79689L13.506 1.79751L7.41845 1.79811L7.01239 2.01045ZM14.7252 3.48505C12.8114 3.59418 10.4709 4.35062 8.32428 5.55381C7.91981 5.78052 7.02819 6.3705 6.58999 6.70144C5.6513 7.41027 4.26466 8.74918 3.38412 9.79701C2.1178 11.3039 1.29821 12.5314 0.42749 14.2252L0.084055 14.8932L0.121475 15.1793C0.162456 15.4925 0.336095 16.3227 0.421962 16.6159L0.476218 16.8011L0.576952 16.5535C0.632364 16.4173 0.723603 16.2074 0.779671 16.0872C0.8939 15.8422 1.10202 15.3544 1.27279 14.9315C1.43777 14.5228 2.03597 13.3502 2.35638 12.8074C4.57636 9.04642 7.51897 6.47882 11.1823 5.1063C12.7699 4.51151 14.0927 4.26772 15.5334 4.30442C16.7427 4.33525 17.6787 4.56074 18.7101 5.06975C20.2054 5.80769 21.3557 7.02179 21.8344 8.36726L21.8916 8.52816L21.8933 8.43445C21.8985 8.15005 21.7638 7.46724 21.6173 7.03482C21.2646 5.99405 20.4584 5.03995 19.4068 4.41883C18.1481 3.6754 16.6451 3.3756 14.7252 3.48505ZM3.66406 4.52219C3.16485 5.02937 2.77997 5.46591 2.77997 5.52495C2.77997 5.53607 3.86781 5.54516 5.19738 5.54516H7.6148L7.9994 5.32348C8.56564 4.99707 9.37492 4.59778 9.99539 4.33872L10.542 4.11048L7.30669 4.10938L4.0714 4.10832L3.66406 4.52219ZM19.9032 4.3246C20.3151 4.60144 20.7434 4.97711 21.0095 5.29493L21.2189 5.54516L21.3936 5.54678C21.4896 5.54766 22.0461 5.55419 22.6302 5.56128C23.2143 5.56834 23.8246 5.56412 23.9864 5.55184L24.2806 5.52954L24.1141 5.32651C24.0225 5.21484 23.7206 4.89508 23.4431 4.6159L22.9386 4.10832H21.26H19.5814L19.9032 4.3246ZM14.6963 4.95315C12.3439 5.14856 9.79501 6.16415 7.62492 7.77076C6.11009 8.89224 4.48274 10.6915 3.43676 12.4014C2.17862 14.458 1.44502 16.3485 1.13982 18.3205L1.0939 18.6172L1.31264 19.058C1.58383 19.6044 1.9868 20.2844 2.3194 20.7569C2.57209 21.1158 2.8132 21.4212 2.83035 21.4041C2.83535 21.3991 2.79818 21.2635 2.74776 21.1027C2.33445 19.7843 2.30678 18.1714 2.6713 16.6452C2.93611 15.5364 3.40671 14.3592 4.00549 13.3075C5.61897 10.4735 7.72428 8.41577 10.3225 7.13314C12.1023 6.25458 13.8735 5.83821 15.5709 5.89937C16.6751 5.93913 17.5517 6.15538 18.4908 6.61969C20.0684 7.39971 21.1386 8.72706 21.5408 10.4023L21.6158 10.7146L21.6004 10.2305C21.591 9.93535 21.5613 9.62865 21.5242 9.44489C21.0598 7.14098 19.0999 5.39823 16.5243 4.99885C16.1302 4.93775 15.1706 4.91376 14.6963 4.95315ZM1.94304 6.66183C1.7808 6.89294 1.24942 7.85531 1.24942 7.91803C1.24942 7.93987 1.79789 7.94986 2.94395 7.94899L4.63848 7.94767L4.9196 7.67942C5.19969 7.4122 5.80732 6.87045 6.04343 6.67745L6.16765 6.57593H4.08549H2.00332L1.94304 6.66183ZM14.7432 6.62566C13.8666 6.70159 13.5247 6.75557 12.8534 6.92402C11.8212 7.18306 10.7098 7.65671 9.69702 8.26924C9.27853 8.52232 9.22427 8.55933 8.65847 8.97748C7.51472 9.82278 6.42819 10.975 5.60663 12.214C4.16498 14.3879 3.48577 16.6422 3.62083 18.8047C3.75049 20.8812 4.53703 22.7363 5.89016 24.157L6.22794 24.5117L6.68263 24.8128C8.28015 25.871 10.3154 26.5337 12.463 26.6949C13.0691 26.7404 14.3966 26.7149 15.0556 26.6452C15.7616 26.5704 15.8018 26.55 15.2898 26.5259C13.1673 26.4259 10.8838 25.622 9.12079 24.3542C8.10441 23.6233 7.13492 22.6277 6.49816 21.6609C5.83581 20.6553 5.41035 19.6465 5.18292 18.5424L5.08896 18.0862L5.07047 17.4303C5.04998 16.7022 5.08022 16.3102 5.20297 15.7123C5.44614 14.528 6.01835 13.2802 6.85227 12.1157C8.7886 9.41178 11.792 7.64809 14.8525 7.41776C17.0232 7.2544 18.9398 8.00699 20.227 9.52816C20.329 9.6487 20.4369 9.78223 20.4668 9.8249C20.5503 9.94413 20.3169 9.43177 20.1719 9.17739C19.8929 8.68824 19.3856 8.1146 18.9184 7.76011C18.1508 7.17772 17.1926 6.80089 16.1488 6.67086C15.8593 6.63481 14.9684 6.60617 14.7432 6.62566ZM21.9277 6.88048C22 7.10663 22.1037 7.54214 22.1656 7.88002L22.1785 7.9503H23.976H25.7736L25.7517 7.88139C25.7045 7.73268 25.1634 6.78112 25.0582 6.66183L25.01 6.60717H23.4252H21.8403L21.9277 6.88048ZM14.4086 7.99734C12.1683 8.28221 9.90483 9.58879 8.26734 11.5424C7.76888 12.1371 7.18846 13.0672 6.89763 13.7374C5.57799 16.7785 6.32236 19.9636 8.94449 22.4954C10.6421 24.1346 12.7734 25.2918 15.2273 25.9067C15.5317 25.983 16.4442 26.1478 16.7971 26.1903L17.0548 26.2214L17.4281 26.1129C18.3875 25.8341 19.5079 25.3417 20.4281 24.7945C20.864 24.5352 21.6551 24.0038 21.635 23.9837C21.627 23.9758 21.426 23.9878 21.1883 24.0105C20.6412 24.0627 18.8692 24.0629 18.3197 24.0109C15.5748 23.7509 13.2805 23.0375 11.3997 21.8592C9.24761 20.5109 7.92965 18.6277 7.7155 16.5949C7.51085 14.6524 8.23351 12.8064 9.82281 11.2122C10.3488 10.6845 10.6377 10.4452 11.2292 10.047C12.1449 9.43049 12.9615 9.04095 13.9467 8.75062C15.2513 8.36614 16.3783 8.2952 17.5065 8.52653C17.712 8.5687 17.8845 8.59894 17.8896 8.59378C17.9108 8.57264 17.1274 8.25775 16.8681 8.18316C16.1534 7.97754 15.1565 7.90223 14.4086 7.99734ZM14.6495 8.80147C14.0227 8.98876 13.549 9.16795 13.1115 9.38332C12.0363 9.91267 11.0397 10.6887 10.3792 11.5112C9.4646 12.65 9.05232 13.7556 9.04554 15.0876C9.03695 16.774 9.69627 18.2708 11.0411 19.6183C12.919 21.4997 15.7898 22.7332 19.0849 23.0743C19.3361 23.1003 19.8709 23.1133 20.5842 23.1108L21.6931 23.1069L22.2444 23.0455L22.7956 22.984L22.9364 22.8686C23.0913 22.7417 23.7228 22.0761 23.9916 21.7564C24.1942 21.5154 24.6529 20.9131 24.6338 20.9131C24.6264 20.9131 24.3764 20.9542 24.0782 21.0045C23.0406 21.1795 22.1278 21.2554 21.0523 21.2562C19.5291 21.2573 18.2269 21.1003 16.9005 20.7556C15.2093 20.3161 13.7232 19.629 12.5617 18.7494C12.3977 18.6252 12.0928 18.3549 11.8842 18.1487C10.6765 16.9554 10.116 15.5634 10.2176 14.01C10.2496 13.521 10.3052 13.2287 10.4466 12.8061C10.8562 11.5821 11.7907 10.4888 13.1513 9.64192C13.5074 9.42031 14.26 9.0219 14.6177 8.86572C14.8494 8.76455 14.8626 8.73778 14.6495 8.80147ZM0.738534 9.12944C0.674251 9.25501 0.485932 9.85236 0.391413 10.2305C0.346309 10.4109 0.302111 10.5831 0.293177 10.6131L0.276903 10.6678H1.24277H2.20867L2.46924 10.332C2.74873 9.97186 3.11 9.53622 3.35002 9.26994C3.4316 9.17942 3.49839 9.09146 3.49839 9.07444C3.49839 9.05454 3.01523 9.04354 2.14045 9.04354H0.782483L0.738534 9.12944ZM22.1438 9.16046C22.1426 9.17345 22.1432 9.28952 22.145 9.41837C22.1481 9.62962 22.1164 10.0219 22.0637 10.4257L22.0443 10.5741H24.3579C25.7332 10.5741 26.6787 10.5624 26.6893 10.5453C26.709 10.5134 26.4696 9.6641 26.353 9.35221L26.2784 9.15287L24.2122 9.14484C23.0758 9.1404 22.145 9.14743 22.1438 9.16046ZM13.197 9.93869C12.5313 10.4474 12.102 10.8993 11.7595 11.452C11.2932 12.2045 11.0886 12.9227 11.0886 13.807C11.0886 16.6052 13.56 18.9859 17.4451 19.9303C18.393 20.1607 19.1187 20.2632 20.2321 20.324L20.8951 20.3602L21.6409 20.325C22.0511 20.3056 22.582 20.2674 22.8208 20.2401C23.7891 20.1292 25.3129 19.8279 25.3901 19.732C25.5301 19.558 26.2455 18.0034 26.3174 17.717L26.3372 17.6377L26.2017 17.6811C26.1271 17.705 25.8482 17.7953 25.5819 17.8818C24.1285 18.3541 22.6159 18.6164 21.1309 18.6536C18.8901 18.7099 16.8118 18.2789 15.1606 17.4157C13.4381 16.5152 12.4199 15.2899 12.0839 13.7133C12.0303 13.4619 12.0297 12.4608 12.083 12.214C12.1405 11.9472 12.2994 11.4703 12.416 11.2144C12.6148 10.7782 13.0189 10.2006 13.3613 9.86348C13.4529 9.7733 13.5237 9.69962 13.5186 9.69977C13.5135 9.6999 13.3688 9.80744 13.197 9.93869ZM13.0891 10.6599C12.8449 11.1855 12.7168 11.984 12.7761 12.6119C12.8715 13.6236 13.2799 14.4825 14.0526 15.2966C14.9658 16.2586 16.207 16.9272 17.8043 17.3173C18.8177 17.5649 19.6593 17.6476 20.9278 17.6243L21.8181 17.608L22.4271 17.5255C23.79 17.3412 24.9462 17.0395 26.2327 16.5328L26.7117 16.3441L26.7393 16.2781C26.7769 16.1882 26.9139 15.4904 26.9564 15.1718C26.9927 14.8998 27.0421 14.2599 27.0268 14.2599C27.0219 14.2599 26.8341 14.352 26.6095 14.4645C24.9856 15.2783 23.2496 15.7939 21.3495 16.0268C20.7938 16.0949 19.5658 16.1204 19.0632 16.0743C16.9906 15.8841 15.4036 15.2312 14.2735 14.1039C13.684 13.5158 13.3586 12.9692 13.1616 12.2366L13.08 11.9328L13.0658 11.4799L13.0516 11.027L13.0986 10.8087C13.1245 10.6886 13.1419 10.5867 13.1374 10.5821C13.1328 10.5776 13.1111 10.6125 13.0891 10.6599ZM0.0815561 11.9378C0.0500706 12.0902 0 12.8184 0 13.1243V13.4165H0.215119H0.43027L0.59382 13.1276C0.766865 12.8219 1.10387 12.2735 1.25739 12.0478C1.30786 11.9736 1.33963 11.9033 1.32795 11.8916C1.3163 11.8799 1.03524 11.8656 0.703331 11.8597L0.0999225 11.8491L0.0815561 11.9378ZM21.5536 12.153C21.3963 12.4935 21.2495 12.7389 21.001 13.0765C20.892 13.2245 20.8029 13.353 20.8029 13.362C20.8029 13.3709 22.205 13.3759 23.9186 13.3729L27.0344 13.3675L27.023 12.9938C27.0167 12.7882 26.9956 12.4584 26.9761 12.2608L26.9407 11.9016L24.3089 11.8936L21.6771 11.8856L21.5536 12.153Z" fill="#6BD1FF"/>
<path d="M44.6081 21.7854V5.69211H46.8526V21.7854H44.6081ZM38.9731 7.26802V5.21457H52.4637V7.26802H38.9731Z" fill="white"/>
<path d="M55.138 21.7854V5.21457H57.3825V21.7854H55.138Z" fill="white"/>
<path d="M62.7743 21.7854V19.732H67.3826C68.6083 19.732 69.6828 19.4693 70.606 18.944C71.5293 18.4028 72.2456 17.6626 72.755 16.7234C73.2803 15.7843 73.5429 14.7018 73.5429 13.4761C73.5429 12.2663 73.2803 11.1919 72.755 10.2527C72.2297 9.31351 71.5054 8.58127 70.5821 8.05597C69.6589 7.53067 68.5924 7.26802 67.3826 7.26802H62.7981V5.21457H67.4303C68.6401 5.21457 69.7544 5.42151 70.7732 5.83538C71.8078 6.24925 72.6993 6.83027 73.4474 7.57842C74.2115 8.32658 74.8005 9.20208 75.2143 10.2049C75.6441 11.2078 75.859 12.3061 75.859 13.5C75.859 14.6779 75.6441 15.7763 75.2143 16.7951C74.8005 17.7979 74.2195 18.6734 73.4713 19.4216C72.7231 20.1697 71.8317 20.7507 70.797 21.1646C69.7783 21.5785 68.672 21.7854 67.4781 21.7854H62.7743ZM61.2939 21.7854V5.21457H63.5383V21.7854H61.2939Z" fill="white"/>
<path d="M78.9687 21.7854V5.21457H81.2131V21.7854H78.9687ZM80.4968 21.7854V19.732H90V21.7854H80.4968ZM80.4968 14.2879V12.33H89.212V14.2879H80.4968ZM80.4968 7.26802V5.21457H89.8806V7.26802H80.4968Z" fill="white"/>
</svg>
