<svg width="28" height="27" viewBox="0 0 28 27" fill="none" xmlns="http://www.w3.org/2000/svg">
<path fill-rule="evenodd" clip-rule="evenodd" d="M12.8222 0.0168084C12.2173 0.0483251 11.3172 0.169613 10.7453 0.296617C10.2424 0.408315 9.52313 0.606099 9.48156 0.644113C9.46476 0.65948 11.2255 0.670413 13.5422 0.669288C16.3184 0.667945 17.6074 0.6572 17.5544 0.635866C17.4038 0.575269 16.8477 0.422527 16.4455 0.331257C15.2698 0.0645364 14.0077 -0.0450068 12.8222 0.0168084ZM7.01239 1.72817C6.55519 1.96725 6.19623 2.18209 5.63049 2.55529L5.24302 2.81089L9.36839 2.81883C11.6373 2.82317 15.3527 2.82317 17.6247 2.81883L21.7556 2.81089L21.5057 2.63844C21.0426 2.31884 20.5089 1.99452 20.0498 1.75385L19.5935 1.51462L13.506 1.51524L7.41845 1.51584L7.01239 1.72817ZM14.7252 3.20278C12.8114 3.31191 10.4709 4.06834 8.32428 5.27154C7.91981 5.49825 7.02819 6.08822 6.58999 6.41917C5.6513 7.12799 4.26466 8.46691 3.38412 9.51474C2.1178 11.0216 1.29821 12.2491 0.42749 13.9429L0.084055 14.611L0.121475 14.897C0.162456 15.2102 0.336095 16.0404 0.421962 16.3336L0.476218 16.5188L0.576952 16.2712C0.632364 16.135 0.723603 15.9252 0.779671 15.8049C0.8939 15.5599 1.10202 15.0722 1.27279 14.6492C1.43777 14.2405 2.03597 13.068 2.35638 12.5252C4.57636 8.76414 7.51897 6.19655 11.1823 4.82403C12.7699 4.22924 14.0927 3.98545 15.5334 4.02215C16.7427 4.05298 17.6787 4.27847 18.7101 4.78748C20.2054 5.52542 21.3557 6.73952 21.8344 8.08499L21.8916 8.24588L21.8933 8.15218C21.8985 7.86778 21.7638 7.18497 21.6173 6.75254C21.2646 5.71177 20.4584 4.75768 19.4068 4.13656C18.1481 3.39312 16.6451 3.09333 14.7252 3.20278ZM3.66406 4.23992C3.16485 4.74709 2.77997 5.18364 2.77997 5.24268C2.77997 5.2538 3.86781 5.26289 5.19738 5.26289H7.6148L7.9994 5.04121C8.56564 4.7148 9.37492 4.31551 9.99539 4.05644L10.542 3.82821L7.30669 3.82711L4.0714 3.82605L3.66406 4.23992ZM19.9032 4.04233C20.3151 4.31917 20.7434 4.69484 21.0095 5.01266L21.2189 5.26289L21.3936 5.26451C21.4896 5.26539 22.0461 5.27191 22.6302 5.279C23.2143 5.28606 23.8246 5.28185 23.9864 5.26957L24.2806 5.24727L24.1141 5.04424C24.0225 4.93257 23.7206 4.61281 23.4431 4.33363L22.9386 3.82605H21.26H19.5814L19.9032 4.04233ZM14.6963 4.67088C12.3439 4.86629 9.79501 5.88188 7.62492 7.48848C6.11009 8.60997 4.48274 10.4092 3.43676 12.1191C2.17862 14.1757 1.44502 16.0663 1.13982 18.0382L1.0939 18.335L1.31264 18.7757C1.58383 19.3222 1.9868 20.0022 2.3194 20.4746C2.57209 20.8335 2.8132 21.139 2.83035 21.1218C2.83535 21.1168 2.79818 20.9812 2.74776 20.8204C2.33445 19.5021 2.30678 17.8891 2.6713 16.3629C2.93611 15.2541 3.40671 14.0769 4.00549 13.0252C5.61897 10.1912 7.72428 8.1335 10.3225 6.85087C12.1023 5.97231 13.8735 5.55594 15.5709 5.6171C16.6751 5.65686 17.5517 5.87311 18.4908 6.33742C20.0684 7.11744 21.1386 8.44479 21.5408 10.12L21.6158 10.4324L21.6004 9.94822C21.591 9.65308 21.5613 9.34638 21.5242 9.16262C21.0598 6.85871 19.0999 5.11595 16.5243 4.71658C16.1302 4.65548 15.1706 4.63149 14.6963 4.67088ZM1.94304 6.37956C1.7808 6.61067 1.24942 7.57304 1.24942 7.63576C1.24942 7.65759 1.79789 7.66759 2.94395 7.66671L4.63848 7.6654L4.9196 7.39715C5.19969 7.12993 5.80732 6.58818 6.04343 6.39518L6.16765 6.29366H4.08549H2.00332L1.94304 6.37956ZM14.7432 6.34339C13.8666 6.41932 13.5247 6.4733 12.8534 6.64175C11.8212 6.90079 10.7098 7.37444 9.69702 7.98697C9.27853 8.24004 9.22427 8.27706 8.65847 8.69521C7.51472 9.54051 6.42819 10.6928 5.60663 11.9317C4.16498 14.1056 3.48577 16.36 3.62083 18.5224C3.75049 20.599 4.53703 22.454 5.89016 23.8747L6.22794 24.2294L6.68263 24.5306C8.28015 25.5887 10.3154 26.2514 12.463 26.4126C13.0691 26.4581 14.3966 26.4326 15.0556 26.3629C15.7616 26.2882 15.8018 26.2677 15.2898 26.2436C13.1673 26.1437 10.8838 25.3398 9.12079 24.072C8.10441 23.341 7.13492 22.3454 6.49816 21.3787C5.83581 20.3731 5.41035 19.3643 5.18292 18.2601L5.08896 17.804L5.07047 17.148C5.04998 16.42 5.08022 16.028 5.20297 15.4301C5.44614 14.2458 6.01835 12.9979 6.85227 11.8334C8.7886 9.12951 11.792 7.36582 14.8525 7.13549C17.0232 6.97213 18.9398 7.72472 20.227 9.24589C20.329 9.36643 20.4369 9.49996 20.4668 9.54263C20.5503 9.66186 20.3169 9.1495 20.1719 8.89512C19.8929 8.40597 19.3856 7.83233 18.9184 7.47783C18.1508 6.89545 17.1926 6.51862 16.1488 6.38859C15.8593 6.35254 14.9684 6.3239 14.7432 6.34339ZM21.9277 6.59821C22 6.82435 22.1037 7.25987 22.1656 7.59775L22.1785 7.66803H23.976H25.7736L25.7517 7.59912C25.7045 7.45041 25.1634 6.49885 25.0582 6.37956L25.01 6.3249H23.4252H21.8403L21.9277 6.59821ZM14.4086 7.71507C12.1683 7.99994 9.90483 9.30652 8.26734 11.2601C7.76888 11.8548 7.18846 12.7849 6.89763 13.4552C5.57799 16.4963 6.32236 19.6813 8.94449 22.2131C10.6421 23.8523 12.7734 25.0095 15.2273 25.6244C15.5317 25.7007 16.4442 25.8656 16.7971 25.9081L17.0548 25.9391L17.4281 25.8306C18.3875 25.5518 19.5079 25.0594 20.4281 24.5122C20.864 24.253 21.6551 23.7216 21.635 23.7015C21.627 23.6935 21.426 23.7055 21.1883 23.7282C20.6412 23.7804 18.8692 23.7806 18.3197 23.7286C15.5748 23.4686 13.2805 22.7552 11.3997 21.5769C9.24761 20.2286 7.92965 18.3454 7.7155 16.3126C7.51085 14.3701 8.23351 12.5241 9.82281 10.9299C10.3488 10.4022 10.6377 10.1629 11.2292 9.76468C12.1449 9.14822 12.9615 8.75868 13.9467 8.46834C15.2513 8.08387 16.3783 8.01293 17.5065 8.24426C17.712 8.28643 17.8845 8.31666 17.8896 8.31151C17.9108 8.29036 17.1274 7.97548 16.8681 7.90089C16.1534 7.69526 15.1565 7.61996 14.4086 7.71507ZM14.6495 8.5192C14.0227 8.70648 13.549 8.88568 13.1115 9.10105C12.0363 9.6304 11.0397 10.4064 10.3792 11.2289C9.4646 12.3677 9.05232 13.4733 9.04554 14.8054C9.03695 16.4917 9.69627 17.9886 11.0411 19.336C12.919 21.2175 15.7898 22.4509 19.0849 22.792C19.3361 22.818 19.8709 22.8311 20.5842 22.8286L21.6931 22.8246L22.2444 22.7632L22.7956 22.7017L22.9364 22.5864C23.0913 22.4594 23.7228 21.7938 23.9916 21.4742C24.1942 21.2332 24.6529 20.6308 24.6338 20.6308C24.6264 20.6308 24.3764 20.6719 24.0782 20.7222C23.0406 20.8972 22.1278 20.9731 21.0523 20.9739C19.5291 20.975 18.2269 20.818 16.9005 20.4733C15.2093 20.0338 13.7232 19.3467 12.5617 18.4671C12.3977 18.3429 12.0928 18.0726 11.8842 17.8664C10.6765 16.6731 10.116 15.2811 10.2176 13.7277C10.2496 13.2387 10.3052 12.9464 10.4466 12.5238C10.8562 11.2998 11.7907 10.2065 13.1513 9.35965C13.5074 9.13803 14.26 8.73962 14.6177 8.58345C14.8494 8.48228 14.8626 8.45551 14.6495 8.5192ZM0.738534 8.84717C0.674251 8.97274 0.485932 9.57008 0.391413 9.94822C0.346309 10.1286 0.302111 10.3008 0.293177 10.3309L0.276903 10.3855H1.24277H2.20867L2.46924 10.0497C2.74873 9.68959 3.11 9.25395 3.35002 8.98767C3.4316 8.89715 3.49839 8.80919 3.49839 8.79216C3.49839 8.77227 3.01523 8.76127 2.14045 8.76127H0.782483L0.738534 8.84717ZM22.1438 8.87819C22.1426 8.89118 22.1432 9.00725 22.145 9.1361C22.1481 9.34734 22.1164 9.7396 22.0637 10.1434L22.0443 10.2918H24.3579C25.7332 10.2918 26.6787 10.2802 26.6893 10.2631C26.709 10.2311 26.4696 9.38183 26.353 9.06994L26.2784 8.8706L24.2122 8.86257C23.0758 8.85813 22.145 8.86516 22.1438 8.87819ZM13.197 9.65642C12.5313 10.1651 12.102 10.617 11.7595 11.1697C11.2932 11.9222 11.0886 12.6404 11.0886 13.5247C11.0886 16.3229 13.56 18.7036 17.4451 19.648C18.393 19.8784 19.1187 19.9809 20.2321 20.0417L20.8951 20.0779L21.6409 20.0427C22.0511 20.0234 22.582 19.9852 22.8208 19.9578C23.7891 19.847 25.3129 19.5456 25.3901 19.4497C25.5301 19.2757 26.2455 17.7212 26.3174 17.4347L26.3372 17.3555L26.2017 17.3988C26.1271 17.4227 25.8482 17.513 25.5819 17.5995C24.1285 18.0718 22.6159 18.3341 21.1309 18.3714C18.8901 18.4276 16.8118 17.9966 15.1606 17.1334C13.4381 16.2329 12.4199 15.0076 12.0839 13.431C12.0303 13.1796 12.0297 12.1786 12.083 11.9317C12.1405 11.665 12.2994 11.188 12.416 10.9321C12.6148 10.4959 13.0189 9.91833 13.3613 9.5812C13.4529 9.49103 13.5237 9.41734 13.5186 9.4175C13.5135 9.41762 13.3688 9.52517 13.197 9.65642ZM13.0891 10.3776C12.8449 10.9032 12.7168 11.7018 12.7761 12.3296C12.8715 13.3413 13.2799 14.2002 14.0526 15.0143C14.9658 15.9764 16.207 16.6449 17.8043 17.0351C18.8177 17.2826 19.6593 17.3653 20.9278 17.342L21.8181 17.3257L22.4271 17.2433C23.79 17.0589 24.9462 16.7572 26.2327 16.2505L26.7117 16.0618L26.7393 15.9958C26.7769 15.9059 26.9139 15.2081 26.9564 14.8895C26.9927 14.6176 27.0421 13.9776 27.0268 13.9776C27.0219 13.9776 26.8341 14.0697 26.6095 14.1823C24.9856 14.996 23.2496 15.5116 21.3495 15.7445C20.7938 15.8126 19.5658 15.8382 19.0632 15.7921C16.9906 15.6019 15.4036 14.9489 14.2735 13.8216C13.684 13.2335 13.3586 12.687 13.1616 11.9543L13.08 11.6506L13.0658 11.1976L13.0516 10.7447L13.0986 10.5264C13.1245 10.4064 13.1419 10.3044 13.1374 10.2998C13.1328 10.2953 13.1111 10.3303 13.0891 10.3776ZM0.0815561 11.6556C0.0500706 11.8079 0 12.5362 0 12.842V13.1343H0.215119H0.43027L0.59382 12.8453C0.766865 12.5396 1.10387 11.9912 1.25739 11.7655C1.30786 11.6913 1.33963 11.621 1.32795 11.6093C1.3163 11.5976 1.03524 11.5833 0.703331 11.5775L0.0999225 11.5668L0.0815561 11.6556ZM21.5536 11.8707C21.3963 12.2113 21.2495 12.4566 21.001 12.7943C20.892 12.9422 20.8029 13.0707 20.8029 13.0797C20.8029 13.0886 22.205 13.0936 23.9186 13.0906L27.0344 13.0853L27.023 12.7115C27.0167 12.5059 26.9956 12.1761 26.9761 11.9785L26.9407 11.6193L24.3089 11.6113L21.6771 11.6034L21.5536 11.8707Z" fill="#6BD1FF"/>
</svg>
